<svg xmlns="http://www.w3.org/2000/svg" viewBox="0 0 800 800" width="800" height="800" fill="none">
  <rect width="800" height="800" fill="#F2F2F2"/>
  <defs>
    <style>
      .fill-shape {
        fill: #241B36;
        fill-opacity: 0;
      }
      .draw-stroke {
        fill: none;
        stroke: #241B36;
        stroke-width: 2.4;
        stroke-linecap: round;
        stroke-linejoin: round;
        vector-effect: non-scaling-stroke;
        stroke-dasharray: 100;
        stroke-dashoffset: 100;
      }
    </style>
  </defs>

  <g id="group-1">
    <path class="fill-shape" d="M 102.10,797.00 L 174.00,797.00 Q 194.00,797.00 202.95,779.11 L 488.85,207.39 Q 497.80,189.50 488.85,171.61 L 411.95,17.89 Q 403.00,0.00 394.06,17.89 L 12.75,780.50 Q 4.50,797.00 22.95,797.00 L 22.95,797.00 Q 41.40,797.00 49.65,780.50 L 394.06,91.69 Q 403.00,73.80 411.95,91.69 L 451.95,171.61 Q 460.90,189.50 451.95,207.39 L 182.22,746.76 Q 173.70,763.80 154.65,763.80 L 154.65,763.80 Q 135.60,763.80 144.12,746.76 L 412.46,210.09 Q 421.40,192.20 412.48,174.30 L 411.92,173.20 Q 403.00,155.30 394.05,173.19 L 91.05,779.11 Q 82.10,797.00 102.10,797.00 Z">
      <animate attributeName="fill-opacity" from="0" to="1" dur="0.14s" begin="0.72s" fill="freeze"/>
    </path>
    <path class="draw-stroke" pathLength="100" d="M 102.10,797.00 L 174.00,797.00 Q 194.00,797.00 202.95,779.11 L 488.85,207.39 Q 497.80,189.50 488.85,171.61 L 411.95,17.89 Q 403.00,0.00 394.06,17.89 L 12.75,780.50 Q 4.50,797.00 22.95,797.00 L 22.95,797.00 Q 41.40,797.00 49.65,780.50 L 394.06,91.69 Q 403.00,73.80 411.95,91.69 L 451.95,171.61 Q 460.90,189.50 451.95,207.39 L 182.22,746.76 Q 173.70,763.80 154.65,763.80 L 154.65,763.80 Q 135.60,763.80 144.12,746.76 L 412.46,210.09 Q 421.40,192.20 412.48,174.30 L 411.92,173.20 Q 403.00,155.30 394.05,173.19 L 91.05,779.11 Q 82.10,797.00 102.10,797.00 Z">
      <animate attributeName="stroke-dashoffset" from="100" to="0" dur="0.78s" begin="0.00s" fill="freeze"/>
      <animate attributeName="opacity" from="1" to="0" dur="0.08s" begin="0.76s" fill="freeze"/>
    </path>
  </g>

  <g id="group-2">
    <path class="fill-shape" d="M 259.60,797.00 L 547.30,797.00 Q 567.30,797.00 558.36,779.11 L 451.04,564.49 Q 442.10,546.60 433.16,564.49 L 360.54,709.71 Q 351.60,727.60 371.60,727.60 L 435.31,727.60 Q 453.60,727.60 445.40,711.25 L 443.97,708.40 Q 437.20,694.90 422.10,694.90 L 422.10,694.90 Q 407.00,694.90 413.74,681.39 L 434.18,640.40 Q 443.10,622.50 452.04,640.39 L 504.56,745.41 Q 513.50,763.30 493.50,763.30 L 313.50,763.30 Q 293.50,763.30 302.45,745.41 L 433.15,484.09 Q 442.10,466.20 451.04,484.09 L 598.56,779.11 Q 607.50,797.00 627.50,797.00 L 702.50,797.00 Q 722.50,797.00 713.55,779.11 L 507.65,367.39 Q 498.70,349.50 507.64,331.61 L 510.06,326.79 Q 519.00,308.90 527.95,326.79 L 754.65,780.10 Q 763.10,797.00 782.00,797.00 L 782.00,797.00 Q 800.90,797.00 792.45,780.10 L 528.25,251.79 Q 519.30,233.90 510.36,251.79 L 470.54,331.41 Q 461.60,349.30 470.54,367.19 L 659.66,745.41 Q 668.60,763.30 648.60,763.30 L 646.40,763.30 Q 626.40,763.30 617.45,745.41 L 450.35,411.29 Q 441.40,393.40 432.46,411.29 L 248.54,779.11 Q 239.60,797.00 259.60,797.00 Z">
      <animate attributeName="fill-opacity" from="0" to="1" dur="0.16s" begin="1.98s" fill="freeze"/>
    </path>
    <path class="draw-stroke" pathLength="100" d="M 259.60,797.00 L 547.30,797.00 Q 567.30,797.00 558.36,779.11 L 451.04,564.49 Q 442.10,546.60 433.16,564.49 L 360.54,709.71 Q 351.60,727.60 371.60,727.60 L 435.31,727.60 Q 453.60,727.60 445.40,711.25 L 443.97,708.40 Q 437.20,694.90 422.10,694.90 L 422.10,694.90 Q 407.00,694.90 413.74,681.39 L 434.18,640.40 Q 443.10,622.50 452.04,640.39 L 504.56,745.41 Q 513.50,763.30 493.50,763.30 L 313.50,763.30 Q 293.50,763.30 302.45,745.41 L 433.15,484.09 Q 442.10,466.20 451.04,484.09 L 598.56,779.11 Q 607.50,797.00 627.50,797.00 L 702.50,797.00 Q 722.50,797.00 713.55,779.11 L 507.65,367.39 Q 498.70,349.50 507.64,331.61 L 510.06,326.79 Q 519.00,308.90 527.95,326.79 L 754.65,780.10 Q 763.10,797.00 782.00,797.00 L 782.00,797.00 Q 800.90,797.00 792.45,780.10 L 528.25,251.79 Q 519.30,233.90 510.36,251.79 L 470.54,331.41 Q 461.60,349.30 470.54,367.19 L 659.66,745.41 Q 668.60,763.30 648.60,763.30 L 646.40,763.30 Q 626.40,763.30 617.45,745.41 L 450.35,411.29 Q 441.40,393.40 432.46,411.29 L 248.54,779.11 Q 239.60,797.00 259.60,797.00 Z">
      <animate attributeName="stroke-dashoffset" from="100" to="0" dur="1.24s" begin="0.80s" fill="freeze"/>
      <animate attributeName="opacity" from="1" to="0" dur="0.08s" begin="2.00s" fill="freeze"/>
    </path>
  </g>
</svg>
